<svg xmlns="http://www.w3.org/2000/svg" width="521" height="148.5" viewBox="0 0 1042 297">
  <defs>
    <style>
      .cls-1, .cls-2 {
        fill-rule: evenodd;
      }

      .cls-2 {
        fill: #be4267;
      }
    </style>
  </defs>
  <g id="Artboard_1" data-name="Artboard 1">
    <path id="WEBtech_support" data-name="WEBtech support" class="cls-1" d="M284.715,287.912a39.4,39.4,0,0,0,10.834-6.046q0.839-.671,1.848-1.512a11.866,11.866,0,0,0,1.848,1.512,39.33,39.33,0,0,0,10.834,6.046,33.393,33.393,0,0,0,11.338,2.016,33.882,33.882,0,0,0,11.505-2.016,39.3,39.3,0,0,0,10.75-5.962,37.4,37.4,0,0,0,9.071-10.5,29.731,29.731,0,0,0,3.947-15.622V195.194q-1.008-10.078-11.086-10.918a11.753,11.753,0,0,0-8.146,3.107,10.078,10.078,0,0,0-3.444,7.811v59.293a14.051,14.051,0,0,1-1.511,6.8,15.5,15.5,0,0,1-3.36,4.368,12.783,12.783,0,0,1-3.863,2.351,11.412,11.412,0,0,1-4.031.756,10.741,10.741,0,0,1-3.948-.756,13.11,13.11,0,0,1-3.779-2.351,15.118,15.118,0,0,1-3.359-4.452,14.811,14.811,0,0,1-1.68-6.718V195.194q-1.008-10.078-11.086-10.918a11.753,11.753,0,0,0-8.146,3.107,10.078,10.078,0,0,0-3.444,7.811v59.293a14.04,14.04,0,0,1-1.512,6.8,15.482,15.482,0,0,1-3.359,4.368,12.783,12.783,0,0,1-3.863,2.351,11.412,11.412,0,0,1-4.031.756,10.741,10.741,0,0,1-3.948-.756,13.11,13.11,0,0,1-3.779-2.351,15.251,15.251,0,0,1-5.039-11.17V195.194q-0.843-10.078-10.918-10.918a11.757,11.757,0,0,0-8.147,3.107,10.08,10.08,0,0,0-3.443,7.811V255.83a32.637,32.637,0,0,0,4.2,15.622,35.636,35.636,0,0,0,9.071,10.5,40.474,40.474,0,0,0,10.834,5.962,33.393,33.393,0,0,0,11.338,2.016A33.882,33.882,0,0,0,284.715,287.912ZM403.52,195.95a50.492,50.492,0,0,0-10.918,18.9,71.119,71.119,0,0,0-3.36,21.668,72.858,72.858,0,0,0,3.276,21.668,49.014,49.014,0,0,0,10.918,18.9,27.448,27.448,0,0,0,19.4,8.987h64.836a11.195,11.195,0,0,0,10.918-10.918,11.472,11.472,0,0,0-3.107-8.063,10.762,10.762,0,0,0-7.811-3.527H428.547a14.934,14.934,0,0,1-10.582-4.871,28.124,28.124,0,0,1-6.131-10.33,37.258,37.258,0,0,1,0-23.684,28.124,28.124,0,0,1,6.131-10.33,14.946,14.946,0,0,1,10.582-4.871h59.125q10.078-.839,10.918-10.918a11.468,11.468,0,0,0-3.107-8.062,10.759,10.759,0,0,0-7.811-3.528H422.836A27.169,27.169,0,0,0,403.52,195.95Zm91.459,31.914A10.861,10.861,0,0,0,487,224.588H436.274a10.915,10.915,0,0,0-11.254,11.254A11.182,11.182,0,0,0,436.274,247.1H487a11.476,11.476,0,0,0,11.254-11.254A10.86,10.86,0,0,0,494.979,227.864Zm135.265,2.771a1.96,1.96,0,0,0,.336-0.5,28.99,28.99,0,0,0,3.191-13.1,28,28,0,0,0-3.359-13.018,31.658,31.658,0,0,0-10.918-11.506q-7.558-5.039-19.317-5.375H599.17a12.465,12.465,0,0,0-2.016-.168H539.373a11.195,11.195,0,0,0-10.918,10.918v76.93a11.195,11.195,0,0,0,10.918,10.918H606.9a12.135,12.135,0,0,0,2.016-.168h1.008q11.754,0,19.316-5.123a31.771,31.771,0,0,0,10.918-11.758,29.305,29.305,0,0,0,3.359-13.353,28.842,28.842,0,0,0-13.269-24.692h0Zm-73.067,32.586h-1.343q-4.705,0-4.7-4.535V247.1h59.8a10.754,10.754,0,0,1,5.292,1.512,9.335,9.335,0,0,1,4.115,6.719,7.191,7.191,0,0,1-1.008,3.611,9.146,9.146,0,0,1-3.107,3.107,8.741,8.741,0,0,1-5.292,1.176h-53.75Zm44.008-38.633H551.131V214.006q0-4.535,4.7-4.535h45.351a11.352,11.352,0,0,1,5.291,1.428,9.131,9.131,0,0,1,3.108,2.855,5.826,5.826,0,0,1,0,6.551,8.563,8.563,0,0,1-3.024,2.772,11.207,11.207,0,0,1-5.375,1.511h0Zm101.252-37.037a10.839,10.839,0,0,0-3.36,7.643v14.613H679.761a11.184,11.184,0,0,0-11.254,11.254,11.479,11.479,0,0,0,11.254,11.254h19.316v5.375a81.481,81.481,0,0,0,3.36,22.508,41.75,41.75,0,0,0,11,17.888q7.641,7.306,19.4,7.979h46.695a11.195,11.195,0,0,0,10.918-10.918,11.468,11.468,0,0,0-3.107-8.063,10.761,10.761,0,0,0-7.811-3.527H738.55a14.934,14.934,0,0,1-10.582-4.871,20.572,20.572,0,0,1-5.291-10.33,60.373,60.373,0,0,1-.924-12.682v-3.359h57.11a11.186,11.186,0,0,0,11.254-11.254,10.915,10.915,0,0,0-11.254-11.254h-57.11V195.194a10.758,10.758,0,0,0-3.527-7.811,11.466,11.466,0,0,0-8.063-3.107A11.306,11.306,0,0,0,702.437,187.551Zm212.279,98.514a11.041,11.041,0,0,0,7.894-3.024,9.7,9.7,0,0,0,.084-14.613,11.334,11.334,0,0,0-7.978-3.023H851.9a10.213,10.213,0,0,1-6.466-2.6,13.888,13.888,0,0,1-4.032-6.467,27.457,27.457,0,0,1-1.259-8.23,26.417,26.417,0,0,1,1.259-7.9,14.465,14.465,0,0,1,4.032-6.55,9.307,9.307,0,0,1,6.466-2.52h62.821a11.159,11.159,0,0,0,7.978-3.107,10.121,10.121,0,0,0,3.276-7.643A9.573,9.573,0,0,0,922.61,213a10.736,10.736,0,0,0-7.894-3.191H850.888q-11.76.169-19.4,6.635a37.457,37.457,0,0,0-10.918,14.613,44.875,44.875,0,0,0-3.275,16.881,43.011,43.011,0,0,0,3.359,16.545,38.548,38.548,0,0,0,10.918,14.613q7.558,6.468,22.34,6.971h60.805Zm6.551-43.756a9.821,9.821,0,0,0-6.551-2.268H859.79a10.058,10.058,0,0,0-6.551,2.184,7,7,0,0,0-2.687,5.375,6.912,6.912,0,0,0,2.687,5.459,9.81,9.81,0,0,0,6.551,2.268h54.926a9.394,9.394,0,0,0,6.383-2.184,7.006,7.006,0,0,0,2.855-5.543A6.768,6.768,0,0,0,921.267,242.309Zm131.823,43.756a11.479,11.479,0,0,0,11.25-11.254,11.174,11.174,0,0,0-11.25-11.254h-64.5a7.818,7.818,0,0,1-5.543-2.771,16.18,16.18,0,0,1-3.443-6.047,22.864,22.864,0,0,1-1.092-6.971,22.364,22.364,0,0,1,1.092-6.8,16.219,16.219,0,0,1,3.443-6.047,7.248,7.248,0,0,1,5.543-2.6h64.5a11.176,11.176,0,0,0,11.25-11.254,11.477,11.477,0,0,0-11.25-11.254H989.26q-11.758.169-19.4,6.635a37.457,37.457,0,0,0-10.918,14.613,44.856,44.856,0,0,0-3.275,16.881,43.011,43.011,0,0,0,3.359,16.545,38.548,38.548,0,0,0,10.918,14.613q7.558,6.468,22.34,6.971h60.806Zm45.32-98.682a10.709,10.709,0,0,0-3.53,7.811v82.3a10.088,10.088,0,0,0,3.44,7.811,11.768,11.768,0,0,0,8.15,3.107q10.08-.841,11.08-10.918V232.315h52.75a7.258,7.258,0,0,1,5.54,2.6,18.121,18.121,0,0,1,3.61,6.131,19.984,19.984,0,0,1,1.26,6.719v29.394q1.005,10.079,11.09,10.918a11.744,11.744,0,0,0,8.14-3.107,10.064,10.064,0,0,0,3.45-7.811V247.936h-0.17a44.5,44.5,0,0,0-3.36-16.965,36.9,36.9,0,0,0-10.83-14.529q-7.65-6.465-19.4-6.635h-52.08V195.194a10.862,10.862,0,0,0-3.35-7.643,11.329,11.329,0,0,0-7.73-3.275A11.447,11.447,0,0,0,1098.41,187.383ZM342.631,332.746a11.942,11.942,0,0,0-7.979-2.771H267.3c-0.562,0-1.4.058-2.52,0.168q-9.743.339-16.041,4.115a23.9,23.9,0,0,0-9.07,8.9,21.518,21.518,0,0,0-2.771,10.33,22.519,22.519,0,0,0,2.687,10.414,23.944,23.944,0,0,0,9.07,9.154q6.383,3.948,16.125,4.115h55.094a11.487,11.487,0,0,1,4.115.924,5.863,5.863,0,0,1,2.436,2.016,4.158,4.158,0,0,1,.84,1.763,3.162,3.162,0,0,1-.84,2.016,7.956,7.956,0,0,1-2.436,1.848,7.667,7.667,0,0,1-4.115.671h-69.2a11.844,11.844,0,0,0-7.9,2.688,8.9,8.9,0,0,0-3.359,7.055,8.581,8.581,0,0,0,3.276,6.8,11.93,11.93,0,0,0,7.978,2.772H315.84q0.839,0,2.687-.168,10.583,0,17.385-3.947t9.826-9.239a21.022,21.022,0,0,0,3.024-10.5,21.789,21.789,0,0,0-2.94-10.666q-2.94-5.29-9.826-9.238t-17.469-4.115H263.6a8.5,8.5,0,0,1-3.528-.924,6.142,6.142,0,0,1-2.015-1.68,3.017,3.017,0,0,1-.672-1.763,2.883,2.883,0,0,1,.672-1.6,7.123,7.123,0,0,1,2.015-1.764,6.585,6.585,0,0,1,3.528-.84h71.05a11.842,11.842,0,0,0,7.9-2.687,8.9,8.9,0,0,0,3.359-7.055A8.584,8.584,0,0,0,342.631,332.746Zm104.174,74.159a72.217,72.217,0,0,0,16.209-5.963,47.823,47.823,0,0,0,13.69-10.5,24.55,24.55,0,0,0,6.466-15.621V339.045q-1.007-10.077-11.086-10.918a11.756,11.756,0,0,0-8.146,3.108,10.078,10.078,0,0,0-3.443,7.81v30.571a12.647,12.647,0,0,1-3.948,8.65,28.916,28.916,0,0,1-8.062,5.459,44.553,44.553,0,0,1-9.238,3.023,46.777,46.777,0,0,1-19.317,0,44.514,44.514,0,0,1-9.238-3.023,28.863,28.863,0,0,1-8.063-5.459,12.624,12.624,0,0,1-3.947-8.65V339.045q-0.843-10.077-10.918-10.918a11.754,11.754,0,0,0-8.146,3.108,10.075,10.075,0,0,0-3.444,7.81v35.778a24.745,24.745,0,0,0,6.383,15.621,46.637,46.637,0,0,0,13.606,10.5,72.11,72.11,0,0,0,16.209,5.963A74.558,74.558,0,0,0,446.805,406.905Zm89.141-50.223q0-4.2,4.367-4.367H599.1a7.848,7.848,0,0,1,5.543,2.771,16.29,16.29,0,0,1,3.444,6.047,22.971,22.971,0,0,1,1.092,6.971,22.432,22.432,0,0,1-1.092,6.8,16.238,16.238,0,0,1-3.444,6.046,7.242,7.242,0,0,1-5.543,2.6h-43a11.182,11.182,0,0,0-11.253,11.254A11.477,11.477,0,0,0,556.1,406.065h42.329q11.754-.165,19.4-6.635a37.443,37.443,0,0,0,10.918-14.613,44.853,44.853,0,0,0,3.275-16.881,43.071,43.071,0,0,0-3.359-16.545,38.614,38.614,0,0,0-10.918-14.613q-7.558-6.465-22.34-6.971H524.86a11.459,11.459,0,0,0-8.062,3.107,10.741,10.741,0,0,0-3.528,7.811v79.953a10.078,10.078,0,0,0,3.444,7.811,11.759,11.759,0,0,0,8.146,3.107q10.078-.843,11.086-10.918v-64Zm147.846,0q0-4.2,4.367-4.367h58.79a7.852,7.852,0,0,1,5.543,2.771,16.3,16.3,0,0,1,3.443,6.047,22.971,22.971,0,0,1,1.092,6.971,22.432,22.432,0,0,1-1.092,6.8,16.25,16.25,0,0,1-3.443,6.046,7.245,7.245,0,0,1-5.543,2.6h-43A11.182,11.182,0,0,0,692.7,394.811a11.477,11.477,0,0,0,11.254,11.254h42.328q11.754-.165,19.4-6.635A37.443,37.443,0,0,0,776.6,384.817a44.833,44.833,0,0,0,3.275-16.881,43.071,43.071,0,0,0-3.359-16.545,38.614,38.614,0,0,0-10.918-14.613q-7.558-6.465-22.34-6.971H672.706a11.461,11.461,0,0,0-8.062,3.107,10.74,10.74,0,0,0-3.527,7.811v79.953a10.077,10.077,0,0,0,3.443,7.811,11.759,11.759,0,0,0,8.146,3.107q10.078-.843,11.086-10.918v-64Zm208.315,49.383q14.78-.5,22.34-6.971a38.569,38.569,0,0,0,10.918-14.613,43.049,43.049,0,0,0,3.359-16.545,44.856,44.856,0,0,0-3.275-16.881,37.486,37.486,0,0,0-10.918-14.613q-7.645-6.465-19.4-6.635H840.709q-11.76.169-19.4,6.635a37.457,37.457,0,0,0-10.918,14.613,44.875,44.875,0,0,0-3.275,16.881,43.011,43.011,0,0,0,3.359,16.545,38.548,38.548,0,0,0,10.918,14.613q7.558,6.468,22.34,6.971h48.375Zm3.7-53.75a7.254,7.254,0,0,1,5.543,2.6,16.29,16.29,0,0,1,3.444,6.047,22.456,22.456,0,0,1,1.092,6.8,22.957,22.957,0,0,1-1.092,6.971,16.25,16.25,0,0,1-3.444,6.047,7.825,7.825,0,0,1-5.543,2.771H840.037a7.816,7.816,0,0,1-5.543-2.771,16.169,16.169,0,0,1-3.444-6.047,22.894,22.894,0,0,1-1.091-6.971,22.393,22.393,0,0,1,1.091-6.8,16.207,16.207,0,0,1,3.444-6.047,7.246,7.246,0,0,1,5.543-2.6H895.8Zm61.007,15.621h-0.168v29.226a10.071,10.071,0,0,0,3.443,7.811,11.756,11.756,0,0,0,8.147,3.107q10.077-.841,11.085-10.918V367.768a19.984,19.984,0,0,1,1.26-6.719,18.125,18.125,0,0,1,3.612-6.131,7.245,7.245,0,0,1,5.543-2.6h63.829a11.176,11.176,0,0,0,11.25-11.254,11.477,11.477,0,0,0-11.25-11.254H990.4q-11.759.169-19.4,6.635a36.8,36.8,0,0,0-10.834,14.529,44.479,44.479,0,0,0-3.359,16.965h0Zm161.951-60.385a10.913,10.913,0,0,0-3.36,7.643v14.613h-19.31a11.191,11.191,0,0,0-11.26,11.254,11.479,11.479,0,0,0,11.26,11.254h19.31v5.375a82.162,82.162,0,0,0,3.36,22.508,41.746,41.746,0,0,0,11.01,17.888q7.635,7.306,19.4,7.979h46.69a11.2,11.2,0,0,0,10.92-10.918,11.475,11.475,0,0,0-3.11-8.063,10.743,10.743,0,0,0-7.81-3.527h-40.98a14.91,14.91,0,0,1-10.58-4.871,20.611,20.611,0,0,1-5.3-10.33,60.586,60.586,0,0,1-.92-12.682v-3.359h57.11a11.176,11.176,0,0,0,11.25-11.254,10.912,10.912,0,0,0-11.25-11.254h-57.11V315.194a10.746,10.746,0,0,0-3.53-7.811,11.464,11.464,0,0,0-8.06-3.107A11.329,11.329,0,0,0,1118.76,307.551Z" transform="translate(-197 -158)"/>
    <path id="black" class="cls-2" d="M703.38,187.551a10.833,10.833,0,0,0-3.359,7.643v14.613H680.7a11.184,11.184,0,0,0-11.254,11.254A11.479,11.479,0,0,0,680.7,232.315h19.317v5.375A81.444,81.444,0,0,0,703.38,260.2a41.75,41.75,0,0,0,11,17.888q7.641,7.306,19.4,7.979h46.7A11.2,11.2,0,0,0,791.4,275.147a11.468,11.468,0,0,0-3.108-8.063,10.76,10.76,0,0,0-7.81-3.527H739.493a14.934,14.934,0,0,1-10.582-4.871,20.572,20.572,0,0,1-5.291-10.33,60.44,60.44,0,0,1-.924-12.682v-3.359h57.11a11.186,11.186,0,0,0,11.254-11.254,10.915,10.915,0,0,0-11.254-11.254H722.7V195.194a10.758,10.758,0,0,0-3.527-7.811,11.465,11.465,0,0,0-8.062-3.107A11.307,11.307,0,0,0,703.38,187.551Zm212.279,98.514a11.039,11.039,0,0,0,7.894-3.024,9.7,9.7,0,0,0,.084-14.613,11.333,11.333,0,0,0-7.978-3.023h-62.82a10.214,10.214,0,0,1-6.467-2.6,13.879,13.879,0,0,1-4.031-6.467,27.426,27.426,0,0,1-1.26-8.23,26.388,26.388,0,0,1,1.26-7.9,14.455,14.455,0,0,1,4.031-6.55,9.307,9.307,0,0,1,6.467-2.52h62.82a11.157,11.157,0,0,0,7.978-3.107,10.121,10.121,0,0,0,3.276-7.643,9.573,9.573,0,0,0-3.36-7.391,10.735,10.735,0,0,0-7.894-3.191H851.831q-11.76.169-19.4,6.635a37.467,37.467,0,0,0-10.918,14.613,44.875,44.875,0,0,0-3.275,16.881,43.011,43.011,0,0,0,3.359,16.545,38.548,38.548,0,0,0,10.918,14.613q7.558,6.468,22.34,6.971h60.8Zm6.551-43.756a9.819,9.819,0,0,0-6.551-2.268H860.733a10.058,10.058,0,0,0-6.551,2.184A7,7,0,0,0,851.5,247.6a6.912,6.912,0,0,0,2.687,5.459,9.81,9.81,0,0,0,6.551,2.268h54.926a9.392,9.392,0,0,0,6.383-2.184A7.006,7.006,0,0,0,924.9,247.6,6.765,6.765,0,0,0,922.21,242.309Zm131.82,43.756a11.479,11.479,0,0,0,11.26-11.254,11.191,11.191,0,0,0-11.26-11.254h-64.5a7.814,7.814,0,0,1-5.542-2.771,16.169,16.169,0,0,1-3.444-6.047,22.9,22.9,0,0,1-1.092-6.971,22.4,22.4,0,0,1,1.092-6.8,16.207,16.207,0,0,1,3.444-6.047,7.244,7.244,0,0,1,5.542-2.6h64.5a11.192,11.192,0,0,0,11.26-11.254,11.477,11.477,0,0,0-11.26-11.254H990.2q-11.758.169-19.4,6.635a37.457,37.457,0,0,0-10.918,14.613,44.856,44.856,0,0,0-3.275,16.881,43.011,43.011,0,0,0,3.359,16.545,38.548,38.548,0,0,0,10.918,14.613q7.559,6.468,22.34,6.971h60.8Zm45.32-98.682a10.746,10.746,0,0,0-3.53,7.811v82.3a10.064,10.064,0,0,0,3.45,7.811,11.744,11.744,0,0,0,8.14,3.107q10.08-.841,11.09-10.918V232.315h52.74a7.243,7.243,0,0,1,5.54,2.6,18.121,18.121,0,0,1,3.61,6.131,19.984,19.984,0,0,1,1.26,6.719v29.394q1.02,10.079,11.09,10.918a11.786,11.786,0,0,0,8.15-3.107,10.088,10.088,0,0,0,3.44-7.811V247.936h-0.17a44.5,44.5,0,0,0-3.36-16.965,36.9,36.9,0,0,0-10.83-14.529q-7.65-6.465-19.4-6.635H1118.5V195.194a10.871,10.871,0,0,0-3.36-7.643,11.31,11.31,0,0,0-7.73-3.275A11.464,11.464,0,0,0,1099.35,187.383Z" transform="translate(-197 -158)"/>
  </g>
</svg>
